# WaveFront *.obj file (generated by Autodesk ATF)

mtllib 5e3a07f0-48fb-471b-9489-07c242617edb.mtl

g Body3

v 5.250000 5.250000 2.000000
v 5.250000 0.750000 2.000000
v 5.250000 0.750000 0.000000
v 5.250000 5.250000 0.000000
v 0.750000 5.250000 2.000000
v 0.750000 5.250000 0.000000
v 0.750000 0.750000 2.000000
v 0.750000 0.750000 0.000000
vt -0.450000 4.880000 0.000000
vt -0.000000 4.880000 0.000000
vt -0.450000 5.080000 0.000000
vt -0.000000 5.080000 0.000000
vt -0.450000 4.880000 0.000000
vt -0.000000 4.880000 0.000000
vt -0.450000 5.080000 0.000000
vt -0.000000 5.080000 0.000000
vt -0.450000 4.880000 0.000000
vt -0.000000 4.880000 0.000000
vt -0.450000 5.080000 0.000000
vt -0.000000 5.080000 0.000000
vt -0.450000 4.880000 0.000000
vt -0.000000 4.880000 0.000000
vt -0.450000 5.080000 0.000000
vt -0.000000 5.080000 0.000000
vt -0.225000 -0.225000 0.000000
vt 0.225000 -0.225000 0.000000
vt -0.225000 0.225000 0.000000
vt 0.225000 0.225000 0.000000
vt 0.225000 0.225000 0.000000
vt -0.225000 0.225000 0.000000
vt 0.225000 -0.225000 0.000000
vt -0.225000 -0.225000 0.000000
vn 0.100000 0.000000 0.000000
vn 0.100000 0.000000 0.000000
vn 0.100000 0.000000 0.000000
vn 0.100000 0.000000 0.000000
vn -0.000000 0.100000 -0.000000
vn -0.000000 0.100000 -0.000000
vn -0.000000 0.100000 -0.000000
vn -0.000000 0.100000 -0.000000
vn -0.100000 0.000000 -0.000000
vn -0.100000 0.000000 -0.000000
vn -0.100000 0.000000 -0.000000
vn -0.100000 0.000000 -0.000000
vn 0.000000 -0.100000 0.000000
vn 0.000000 -0.100000 0.000000
vn 0.000000 -0.100000 0.000000
vn 0.000000 -0.100000 0.000000
vn 0.000000 0.000000 0.100000
vn 0.000000 0.000000 0.100000
vn 0.000000 0.000000 0.100000
vn 0.000000 0.000000 0.100000
vn 0.000000 0.000000 -0.100000
vn 0.000000 0.000000 -0.100000
vn 0.000000 0.000000 -0.100000
vn 0.000000 0.000000 -0.100000
usemtl Steel_-_Satin
f 1/1/1 2/2/2 4/3/3
f 4/3/3 2/2/2 3/4/4
f 5/5/5 1/6/6 6/7/7
f 6/7/7 1/6/6 4/8/8
f 7/9/9 5/10/10 8/11/11
f 8/11/11 5/10/10 6/12/12
f 2/13/13 7/14/14 3/15/15
f 3/15/15 7/14/14 8/16/16
f 7/17/17 2/18/18 5/19/19
f 5/19/19 2/18/18 1/20/20
f 6/21/21 4/22/22 8/23/23
f 8/23/23 4/22/22 3/24/24

g Body4

v 0.000000 6.000000 0.000000
v 0.000000 0.000000 0.000000
v 0.000000 0.000000 2.000000
v 0.000000 6.000000 2.000000
v 6.000000 0.000000 0.000000
v 6.000000 0.000000 2.000000
v 6.000000 6.000000 0.000000
v 6.000000 6.000000 2.000000
v 0.500000 0.500000 0.000000
v 5.500000 0.500000 0.000000
v 5.500000 5.500000 0.000000
v 0.500000 5.500000 0.000000
v 5.500000 0.500000 2.000000
v 0.500000 0.500000 2.000000
v 0.500000 5.500000 2.000000
v 5.500000 5.500000 2.000000
vt 0.000000 0.000000 0.000000
vt 0.600000 0.000000 0.000000
vt 0.000000 0.200000 0.000000
vt 0.600000 0.200000 0.000000
vt 0.000000 0.000000 0.000000
vt 0.600000 0.000000 0.000000
vt 0.000000 0.200000 0.000000
vt 0.600000 0.200000 0.000000
vt 0.000000 0.000000 0.000000
vt 0.600000 0.000000 0.000000
vt 0.000000 0.200000 0.000000
vt 0.600000 0.200000 0.000000
vt 0.000000 0.000000 0.000000
vt 0.600000 0.000000 0.000000
vt 0.000000 0.200000 0.000000
vt 0.600000 0.200000 0.000000
vt 0.300000 0.300000 0.000000
vt 0.250000 0.250000 0.000000
vt 0.300000 -0.300000 0.000000
vt 0.250000 -0.250000 0.000000
vt -0.250000 -0.250000 0.000000
vt -0.300000 0.300000 0.000000
vt -0.250000 0.250000 0.000000
vt -0.300000 -0.300000 0.000000
vt -0.300000 -0.300000 0.000000
vt -0.250000 0.250000 0.000000
vt -0.300000 0.300000 0.000000
vt 0.250000 0.250000 0.000000
vt 0.300000 0.300000 0.000000
vt 0.300000 -0.300000 0.000000
vt 0.250000 -0.250000 0.000000
vt -0.250000 -0.250000 0.000000
vt -0.500000 4.880000 0.000000
vt -0.000000 4.880000 0.000000
vt -0.500000 5.080000 0.000000
vt -0.000000 5.080000 0.000000
vt -0.500000 4.880000 0.000000
vt -0.000000 4.880000 0.000000
vt -0.500000 5.080000 0.000000
vt -0.000000 5.080000 0.000000
vt -0.500000 4.880000 0.000000
vt -0.000000 4.880000 0.000000
vt -0.500000 5.080000 0.000000
vt -0.000000 5.080000 0.000000
vt -0.500000 4.880000 0.000000
vt -0.000000 4.880000 0.000000
vt -0.500000 5.080000 0.000000
vt -0.000000 5.080000 0.000000
vn -0.100000 0.000000 0.000000
vn -0.100000 0.000000 0.000000
vn -0.100000 0.000000 0.000000
vn -0.100000 0.000000 0.000000
vn 0.000000 -0.100000 0.000000
vn 0.000000 -0.100000 0.000000
vn 0.000000 -0.100000 0.000000
vn 0.000000 -0.100000 0.000000
vn 0.100000 0.000000 0.000000
vn 0.100000 0.000000 0.000000
vn 0.100000 0.000000 0.000000
vn 0.100000 0.000000 0.000000
vn 0.000000 0.100000 0.000000
vn 0.000000 0.100000 0.000000
vn 0.000000 0.100000 0.000000
vn 0.000000 0.100000 0.000000
vn 0.000000 0.000000 -0.100000
vn 0.000000 0.000000 -0.100000
vn 0.000000 0.000000 -0.100000
vn 0.000000 0.000000 -0.100000
vn 0.000000 0.000000 -0.100000
vn 0.000000 0.000000 -0.100000
vn 0.000000 0.000000 -0.100000
vn 0.000000 0.000000 -0.100000
vn 0.000000 0.000000 0.100000
vn 0.000000 0.000000 0.100000
vn 0.000000 0.000000 0.100000
vn 0.000000 0.000000 0.100000
vn 0.000000 0.000000 0.100000
vn 0.000000 0.000000 0.100000
vn 0.000000 0.000000 0.100000
vn 0.000000 0.000000 0.100000
vn 0.100000 0.000000 0.000000
vn 0.100000 0.000000 0.000000
vn 0.100000 0.000000 0.000000
vn 0.100000 0.000000 0.000000
vn 0.000000 0.100000 0.000000
vn 0.000000 0.100000 0.000000
vn 0.000000 0.100000 0.000000
vn 0.000000 0.100000 0.000000
vn -0.100000 0.000000 0.000000
vn -0.100000 0.000000 0.000000
vn -0.100000 0.000000 0.000000
vn -0.100000 0.000000 0.000000
vn 0.000000 -0.100000 0.000000
vn 0.000000 -0.100000 0.000000
vn 0.000000 -0.100000 0.000000
vn 0.000000 -0.100000 0.000000
f 9/25/25 10/26/26 12/27/27
f 12/27/27 10/26/26 11/28/28
f 10/29/29 13/30/30 11/31/31
f 11/31/31 13/30/30 14/32/32
f 13/33/33 15/34/34 14/35/35
f 14/35/35 15/34/34 16/36/36
f 15/37/37 9/38/38 16/39/39
f 16/39/39 9/38/38 12/40/40
f 9/41/41 20/42/42 10/43/43
f 10/43/43 20/42/42 17/44/44
f 10/43/43 17/44/44 18/45/45
f 9/41/41 15/46/46 20/42/42
f 20/42/42 15/46/46 19/47/47
f 19/47/47 15/46/46 13/48/48
f 19/47/47 13/48/48 18/45/45
f 18/45/45 13/48/48 10/43/43
f 11/49/49 23/50/50 12/51/51
f 12/51/51 23/50/50 24/52/52
f 12/51/51 24/52/52 16/53/53
f 16/53/53 24/52/52 14/54/54
f 14/54/54 24/52/52 21/55/55
f 14/54/54 21/55/55 22/56/56
f 23/50/50 11/49/49 22/56/56
f 22/56/56 11/49/49 14/54/54
f 23/57/57 22/58/58 20/59/59
f 20/59/59 22/58/58 17/60/60
f 22/61/61 21/62/62 17/63/63
f 17/63/63 21/62/62 18/64/64
f 21/65/65 24/66/66 18/67/67
f 18/67/67 24/66/66 19/68/68
f 24/69/69 23/70/70 19/71/71
f 19/71/71 23/70/70 20/72/72

# 24 vertices
# 72 texture params
# 72 normals
# 44 facets

# 2 groups
